<?xml version="1.0" standalone="no"?>
<!DOCTYPE svg PUBLIC "-//W3C//DTD SVG 20010904//EN"
 "http://www.w3.org/TR/2001/REC-SVG-20010904/DTD/svg10.dtd">
<svg version="1.0" xmlns="http://www.w3.org/2000/svg"
 width="1430.000000pt" height="1430.000000pt" viewBox="0 0 1430.000000 1430.000000"
 preserveAspectRatio="xMidYMid meet">
<metadata>
Created by potrace 1.11, written by Peter Selinger 2001-2013
</metadata>
<g transform="translate(0.000000,1430.000000) scale(0.100000,-0.100000)"
fill="#000000" stroke="none">
<path d="M2346 14003 c-4 -5 -32 -21 -61 -38 -88 -50 -209 -119 -230 -132 -11
-7 -27 -15 -35 -19 -8 -4 -42 -24 -75 -44 -33 -20 -67 -39 -75 -43 -8 -4 -28
-15 -45 -26 -16 -10 -151 -88 -300 -173 -148 -85 -310 -179 -360 -208 -49 -28
-108 -62 -130 -75 -22 -12 -80 -46 -130 -75 -49 -29 -108 -62 -130 -75 -22
-12 -182 -105 -355 -205 -173 -101 -326 -189 -340 -196 l-25 -13 0 -4090 c0
-2714 3 -4093 10 -4099 8 -7 579 -339 765 -444 19 -11 64 -37 100 -58 36 -21
81 -47 100 -57 19 -11 136 -79 260 -150 124 -72 239 -138 255 -147 17 -9 46
-26 65 -37 52 -31 468 -272 520 -301 100 -56 432 -249 469 -273 23 -14 43 -25
45 -25 2 0 96 -53 208 -118 111 -65 226 -132 254 -148 43 -24 514 -295 564
-325 8 -4 49 -28 90 -52 41 -24 95 -55 120 -69 25 -14 218 -126 430 -248 212
-123 405 -234 430 -248 25 -13 65 -37 90 -52 41 -25 827 -479 875 -504 11 -6
31 -19 45 -27 14 -9 239 -139 500 -289 261 -150 495 -285 520 -299 25 -15 54
-32 65 -38 137 -81 293 -169 303 -171 7 -2 128 63 269 145 142 81 266 153 275
158 10 6 115 66 234 135 119 69 235 136 258 149 22 13 231 133 463 267 232
134 437 252 455 263 18 10 103 59 188 108 85 50 288 167 450 260 162 94 340
196 395 228 94 54 513 296 581 335 58 33 550 318 814 470 146 85 276 160 290
167 14 8 43 25 65 39 22 13 62 36 90 50 27 15 65 36 85 49 38 24 76 46 380
221 113 65 285 164 383 221 98 57 181 103 184 103 4 0 14 6 22 14 9 7 48 31
86 51 39 21 81 46 95 55 14 9 50 31 80 47 65 36 207 117 345 198 55 32 136 79
180 104 44 25 89 51 100 58 11 7 27 15 35 19 17 9 284 165 288 169 3 2 -146
90 -327 193 -25 14 -68 38 -95 55 -28 16 -67 39 -86 50 -19 10 -152 87 -295
170 -143 82 -280 161 -305 175 -53 30 -588 338 -610 352 -35 22 -179 105 -230
133 -30 17 -79 45 -108 64 -29 18 -55 33 -58 33 -2 0 -71 39 -152 86 -81 48
-165 97 -187 109 -22 12 -125 71 -230 132 -173 100 -536 310 -610 353 -16 9
-118 68 -225 130 -201 116 -625 361 -683 394 -17 10 -122 70 -232 134 -110 63
-231 133 -268 154 l-69 39 -101 -58 c-56 -32 -106 -60 -112 -62 -5 -2 -17 -9
-25 -16 -8 -7 -39 -26 -68 -41 -29 -16 -61 -33 -70 -39 -39 -23 -179 -104
-212 -123 -19 -11 -107 -61 -195 -112 -260 -150 -617 -356 -655 -378 -207
-118 -839 -484 -853 -494 -17 -12 -1 -23 165 -120 100 -58 199 -115 218 -126
19 -11 224 -129 455 -262 231 -134 434 -251 450 -260 17 -10 71 -41 120 -70
50 -29 108 -62 130 -75 43 -24 651 -375 750 -433 33 -19 81 -46 107 -61 l48
-25 -33 -17 c-33 -17 -144 -80 -322 -184 -55 -32 -136 -79 -180 -104 -44 -25
-89 -51 -100 -58 -11 -7 -27 -15 -35 -19 -8 -4 -31 -17 -50 -29 -19 -12 -197
-115 -395 -229 -349 -201 -428 -247 -470 -273 -11 -7 -27 -15 -35 -20 -8 -4
-74 -41 -145 -83 -72 -42 -137 -79 -145 -83 -8 -4 -30 -16 -48 -27 -42 -26
-425 -247 -473 -274 l-36 -20 -202 117 c-111 64 -207 117 -212 117 -5 0 -9 5
-9 10 0 6 -4 10 -9 10 -8 0 -329 182 -371 210 -8 6 -22 13 -30 17 -8 4 -31 16
-50 28 -19 12 -55 33 -80 47 -25 14 -130 74 -235 135 -104 61 -336 194 -515
298 -179 103 -354 204 -390 225 -36 21 -168 97 -295 170 -220 127 -369 214
-445 259 -19 11 -41 24 -49 28 -8 3 -64 35 -125 71 -61 35 -230 133 -376 217
-146 84 -407 235 -580 335 -173 101 -331 192 -350 202 -19 11 -128 74 -242
140 l-208 120 0 2754 0 2755 23 -12 c16 -9 857 -494 1212 -699 17 -10 64 -37
105 -60 84 -48 357 -205 380 -219 8 -5 80 -47 159 -93 80 -46 156 -90 170 -98
14 -9 73 -42 131 -75 58 -32 116 -66 130 -75 14 -10 50 -31 80 -48 30 -16 197
-112 370 -212 173 -101 331 -192 350 -202 19 -11 91 -53 160 -93 69 -39 145
-83 170 -97 25 -14 214 -123 420 -243 206 -119 393 -227 415 -240 22 -12 64
-36 93 -54 29 -17 57 -31 62 -31 6 0 10 -4 10 -10 0 -5 4 -10 9 -10 5 0 64
-32 132 -72 68 -39 140 -80 159 -90 l35 -19 118 68 c65 37 133 76 150 86 18
11 111 64 207 120 96 55 245 141 330 190 85 50 180 104 210 120 30 16 62 36
71 43 8 8 19 14 22 14 4 0 44 22 89 49 91 53 271 157 478 276 74 43 189 109
255 148 66 38 140 81 165 95 64 36 280 161 775 447 237 137 471 272 520 300
50 28 162 93 250 145 88 51 180 104 205 118 53 30 778 448 863 498 32 19 60
34 62 34 2 0 4 -584 4 -1297 0 -714 0 -1314 1 -1335 l0 -36 188 -108 c103 -60
199 -116 213 -124 50 -28 454 -262 469 -271 14 -8 277 -160 345 -199 17 -9
165 -95 330 -190 262 -151 384 -222 525 -302 19 -11 76 -45 126 -74 50 -29 98
-56 105 -59 12 -4 14 396 13 2658 0 1465 -4 2668 -8 2675 -4 7 -28 24 -54 37
-26 14 -54 30 -62 35 -17 11 -157 93 -210 122 -30 17 -825 475 -930 536 -85
50 -218 126 -255 147 -22 13 -107 62 -190 110 -82 48 -171 99 -196 114 -97 55
-285 163 -304 174 -71 44 -96 57 -104 57 -6 0 -97 -50 -203 -111 -106 -61
-208 -120 -226 -130 -18 -11 -93 -54 -165 -96 -208 -120 -509 -294 -547 -315
-86 -50 -677 -389 -690 -398 -27 -16 -449 -260 -675 -390 -121 -70 -264 -152
-317 -183 -180 -104 -293 -170 -323 -187 -16 -9 -133 -77 -260 -150 -126 -73
-244 -141 -261 -150 -16 -10 -90 -52 -164 -95 -74 -43 -148 -85 -164 -95 -17
-9 -87 -50 -156 -90 -69 -40 -141 -81 -160 -92 -19 -11 -129 -75 -245 -141
-115 -67 -216 -120 -225 -120 -9 1 -49 21 -90 46 -68 40 -369 214 -447 258
-18 10 -119 69 -225 130 -106 61 -283 163 -393 227 -297 171 -1389 801 -1710
987 -154 89 -300 173 -325 187 -25 14 -144 83 -265 153 -121 70 -238 138 -260
150 -22 12 -123 70 -225 129 -102 60 -203 118 -225 131 -22 12 -128 73 -235
135 -401 232 -377 220 -394 203z"/>
</g>
</svg>
