<?xml version="1.0" standalone="no"?>
<!DOCTYPE svg PUBLIC "-//W3C//DTD SVG 20010904//EN"
 "http://www.w3.org/TR/2001/REC-SVG-20010904/DTD/svg10.dtd">
<svg version="1.0" xmlns="http://www.w3.org/2000/svg"
 width="16.000000pt" height="16.000000pt" viewBox="0 0 16.000000 16.000000"
 preserveAspectRatio="xMidYMid meet">
<metadata>
Created by potrace 1.11, written by Peter Selinger 2001-2013
</metadata>
<g transform="translate(0.000000,16.000000) scale(0.003556,-0.003556)"
fill="#000000" stroke="none">
<path d="M2083 4455 c-41 -28 -24 -112 23 -116 8 -1 20 -2 27 -3 21 -4 47 14
47 31 0 14 -2 14 -20 -2 -41 -37 -102 17 -73 64 11 18 73 28 73 12 0 -6 5 -11
10 -11 6 0 10 8 10 18 0 24 -66 29 -97 7z"/>
<path d="M2303 4401 l0 -66 48 -1 c35 -2 49 2 54 13 7 20 -4 31 -14 14 -12
-19 -64 -10 -67 13 -2 16 2 18 31 13 27 -4 33 -2 31 11 -2 12 -11 16 -29 14
-21 -3 -27 1 -27 17 0 15 6 19 25 17 14 -1 28 -6 32 -9 11 -12 23 -8 23 8 0
11 -11 15 -37 16 -21 0 -45 2 -54 4 -13 2 -16 -9 -16 -64z"/>
<path d="M1856 4434 c-32 -31 -7 -64 47 -64 35 0 43 -28 11 -36 -14 -4 -30 -2
-37 5 -15 15 -27 14 -27 -3 0 -21 47 -29 78 -13 18 9 26 19 24 32 -5 26 -6 27
-49 34 -20 3 -38 12 -41 19 -6 18 27 27 49 14 25 -16 29 -15 29 6 0 23 -62 28
-84 6z"/>
<path d="M2534 4396 c-6 -28 -12 -57 -15 -65 -2 -8 3 -16 12 -18 10 -3 15 4
16 19 2 85 8 87 43 16 14 -28 30 -51 35 -51 6 1 14 16 18 35 4 18 12 45 17 61
7 23 5 27 -11 27 -11 0 -16 -5 -13 -13 2 -7 1 -31 -4 -52 l-8 -40 -28 62 c-37
80 -49 84 -62 19z"/>
<path d="M2776 4374 c-9 -24 -8 -25 14 -12 10 7 22 9 26 5 6 -6 -5 -57 -23
-103 -3 -8 1 -14 11 -14 9 0 16 8 16 17 0 35 24 83 42 83 10 0 18 -7 18 -17 0
-15 2 -16 9 -3 14 20 8 26 -48 44 -61 20 -58 20 -65 0z"/>
<path d="M1561 4367 c-6 -6 -11 -23 -11 -37 0 -14 -4 -41 -10 -59 -11 -39 -9
-44 13 -35 9 3 13 12 10 20 -3 8 5 18 22 24 36 14 45 13 45 -5 0 -16 9 -19 26
-7 8 5 -4 25 -36 59 -35 38 -50 49 -59 40z m27 -70 c-26 -9 -27 -8 -21 27 l6
29 18 -24 c17 -23 17 -24 -3 -32z"/>
<path d="M3005 4311 c3 -6 -5 -34 -19 -63 -14 -29 -24 -53 -23 -53 1 -1 21 -9
45 -19 47 -18 62 -15 62 12 0 14 -2 14 -9 3 -14 -22 -70 4 -64 30 6 23 12 24
40 4 19 -13 22 -13 27 1 8 22 8 24 -7 18 -19 -7 -48 19 -38 34 11 17 61 -2 61
-23 0 -9 5 -13 10 -10 14 9 12 32 -2 38 -7 3 -30 13 -51 22 -22 9 -36 11 -32
6z"/>
<path d="M1360 4305 c0 -3 6 -16 14 -28 8 -12 17 -32 20 -43 6 -21 3 -20 -53
9 -33 18 -62 29 -65 26 -4 -3 4 -28 16 -55 12 -27 21 -55 20 -61 -2 -8 3 -10
13 -7 18 7 19 2 -5 49 -11 21 -18 41 -15 43 2 2 26 -9 53 -26 65 -40 79 -30
50 34 -12 27 -21 52 -20 57 1 4 -5 7 -13 7 -8 0 -15 -2 -15 -5z"/>
<path d="M3213 4212 c3 -12 -35 -92 -45 -92 -20 0 -5 -18 27 -33 50 -24 80
-21 103 8 29 37 18 71 -33 100 -44 26 -57 30 -52 17z m51 -33 c34 -16 39 -45
13 -74 -20 -21 -25 -22 -53 -12 l-31 12 19 43 c21 47 19 46 52 31z"/>
<path d="M2208 4186 c-1 -2 -53 -6 -115 -9 -61 -3 -115 -7 -120 -10 -4 -3 -35
-8 -68 -11 -33 -4 -81 -13 -107 -21 -27 -8 -48 -12 -48 -10 0 12 -281 -95
-380 -144 -149 -75 -242 -135 -365 -236 -228 -188 -408 -421 -531 -690 -61
-132 -124 -329 -139 -435 -2 -14 -6 -38 -9 -55 -12 -72 -16 -116 -21 -217 -3
-60 -3 -108 1 -108 20 0 32 36 38 116 4 49 9 107 12 129 2 22 7 54 9 70 37
287 199 648 402 897 59 73 192 206 263 263 25 20 52 42 61 49 180 147 536 306
766 342 21 3 41 8 44 10 3 2 33 6 65 9 32 4 77 8 99 11 53 6 260 6 310 0 22
-2 67 -7 100 -11 287 -30 624 -171 893 -372 84 -63 260 -234 307 -298 17 -22
36 -47 44 -55 36 -37 144 -215 194 -320 87 -179 152 -391 171 -552 3 -27 9
-69 12 -95 8 -62 8 -274 1 -338 -4 -27 -11 -83 -17 -124 -9 -63 -8 -77 5 -90
20 -20 22 -16 30 54 3 32 8 62 10 65 13 21 20 294 11 430 -26 414 -246 883
-559 1191 -304 300 -648 471 -1087 543 -19 4 -84 9 -145 12 -60 3 -115 7 -122
9 -6 2 -13 2 -15 1z"/>
<path d="M1095 4169 c-12 -18 -1 -139 12 -139 7 0 12 10 10 22 -3 28 48 61 62
39 6 -9 14 -10 25 -4 13 7 6 16 -44 50 -33 23 -62 38 -65 32z m37 -67 c-14
-10 -18 -10 -23 5 -11 31 1 46 21 26 17 -17 17 -19 2 -31z"/>
<path d="M920 4055 c-7 -9 -8 -15 -2 -15 12 0 52 -61 52 -79 0 -6 -12 -17 -26
-23 -25 -11 -29 -10 -55 21 -15 19 -26 38 -23 43 6 10 -7 10 -23 0 -8 -5 1
-21 26 -51 32 -38 41 -43 64 -37 15 3 34 17 43 30 14 23 14 27 -3 57 -42 74
-39 71 -53 54z"/>
<path d="M3503 4034 c4 -4 -9 -29 -29 -55 l-35 -48 40 -26 c22 -15 45 -24 50
-20 16 9 13 25 -2 19 -8 -3 -24 3 -36 13 l-22 18 26 38 c14 20 31 37 37 37 7
0 6 5 -2 15 -7 8 -17 15 -23 15 -6 0 -7 -3 -4 -6z"/>
<path d="M724 3899 c-3 -6 5 -21 18 -33 14 -11 30 -31 37 -43 10 -19 8 -24 -9
-33 -11 -6 -25 -8 -30 -5 -6 3 -10 2 -10 -3 0 -22 32 -20 56 3 27 28 25 40
-19 87 -14 15 -22 29 -19 32 3 3 0 6 -6 6 -6 0 -14 -5 -18 -11z"/>
<path d="M3670 3888 c-1 -22 -59 -79 -73 -72 -6 4 8 -14 32 -39 37 -38 47 -44
59 -34 13 10 12 12 -5 15 -12 2 -29 12 -38 22 -14 16 -15 23 -6 34 10 12 16
13 32 3 11 -7 17 -18 14 -24 -7 -21 9 -15 23 8 8 12 10 19 5 16 -4 -3 -17 1
-27 9 -16 11 -17 16 -6 29 12 14 15 13 36 -6 13 -12 21 -26 18 -30 -3 -5 -1
-9 5 -9 25 0 18 21 -16 54 -40 38 -53 44 -53 24z"/>
<path d="M571 3753 c-8 -9 -6 -15 11 -24 13 -7 36 -25 52 -41 22 -23 31 -27
40 -18 8 10 8 14 -3 18 -7 2 -30 21 -51 41 -29 28 -40 33 -49 24z"/>
<path d="M2741 3738 c-18 -18 -36 -33 -40 -33 -12 0 -35 -27 -56 -67 -11 -22
-22 -33 -26 -26 -8 12 -20 -8 -38 -64 -8 -24 -17 -35 -26 -32 -23 9 -70 -137
-81 -255 -3 -31 -7 -68 -9 -83 -2 -16 0 -28 4 -28 11 0 106 165 160 280 49
103 66 130 35 54 -112 -270 -247 -461 -413 -583 -58 -43 -166 -100 -195 -105
-6 -1 -15 -4 -21 -8 -13 -8 -126 -31 -130 -26 -1 1 -6 62 -9 133 -11 214 -56
352 -131 408 -36 26 -46 28 -100 25 -77 -5 -122 -34 -171 -110 -20 -31 -37
-60 -37 -65 1 -4 -4 -19 -9 -32 -42 -110 9 -279 112 -374 l47 -43 -3 -165 c-4
-230 -20 -349 -47 -349 -28 0 -93 210 -123 395 -11 66 -26 105 -42 114 -30 16
-44 -3 -48 -65 -16 -300 -51 -468 -106 -515 -26 -23 -37 -23 -64 -1 -87 71
-207 376 -239 604 -19 140 -25 199 -31 308 -3 68 -10 134 -15 147 -11 30 -39
43 -93 43 -70 0 -79 -21 -80 -178 -1 -178 11 -315 39 -444 9 -40 18 -82 20
-94 22 -105 95 -275 156 -365 68 -101 120 -144 186 -155 45 -7 102 16 140 58
35 37 70 126 90 223 9 50 19 92 20 94 5 8 14 -6 18 -30 13 -72 48 -190 68
-228 63 -124 190 -149 274 -53 71 83 152 344 169 549 3 43 9 81 13 84 5 5 51
19 112 33 33 8 144 69 198 109 74 54 181 157 232 224 23 29 45 50 50 48 11 -8
171 55 282 110 51 25 83 38 72 29 -28 -22 -231 -120 -282 -136 -51 -15 -57
-30 -10 -23 17 2 55 7 82 10 113 14 240 57 232 79 -3 6 13 20 34 30 22 11 38
24 36 30 -2 6 10 20 27 31 17 11 36 31 42 43 6 13 22 34 35 48 l24 26 -65 -7
c-36 -4 -78 -14 -93 -22 -15 -7 -32 -11 -37 -8 -6 4 -22 -2 -38 -13 -44 -31
-56 -36 -48 -24 4 7 4 12 -1 12 -8 0 -124 -69 -133 -79 -3 -4 -21 -18 -40 -32
-20 -15 -53 -44 -73 -64 -66 -66 -49 -32 32 65 87 103 170 232 152 238 -6 2
-1 22 14 52 27 54 30 64 15 55 -13 -8 -13 1 2 28 10 19 23 197 14 197 -2 0
-18 -15 -35 -32z m-1147 -534 c8 -22 9 -414 1 -422 -12 -12 -71 66 -93 121
-38 97 -21 234 36 300 19 21 48 22 56 1z"/>
<path d="M2269 3708 c0 -7 -3 -24 -7 -38 -3 -14 -6 -49 -6 -77 -1 -29 -5 -53
-9 -53 -8 0 -3 -37 10 -84 3 -12 1 -16 -6 -12 -21 13 1 -57 40 -131 32 -62
102 -166 131 -198 5 -5 0 15 -13 45 -37 93 -95 291 -80 274 4 -5 20 -49 35
-99 15 -49 36 -109 47 -132 10 -24 19 -50 19 -58 0 -8 5 -15 11 -15 9 0 10 33
6 118 -4 64 -8 124 -10 132 -2 8 -7 32 -12 53 -4 21 -14 41 -21 44 -8 3 -14
19 -14 38 0 18 -6 38 -13 44 -8 6 -19 29 -26 51 -6 22 -16 40 -22 40 -5 0 -17
16 -26 35 -17 35 -32 46 -34 23z m56 -207 c3 -5 2 -12 -3 -15 -5 -3 -9 1 -9 9
0 17 3 19 12 6z"/>
<path d="M3812 3671 c-47 -13 -59 -20 -50 -29 8 -8 15 -8 24 -1 9 7 18 2 33
-17 23 -29 27 -44 11 -44 -7 0 -6 -8 1 -22 10 -18 13 -19 17 -8 3 8 16 39 29
67 22 48 24 75 5 72 -4 -1 -35 -9 -70 -18z m55 -26 c-14 -29 -20 -31 -37 -10
-10 12 -8 16 11 24 36 14 38 13 26 -14z"/>
<path d="M441 3593 l-30 -36 27 -14 c15 -8 39 -26 54 -40 26 -25 26 -25 37 -4
9 16 9 19 -2 15 -19 -7 -38 18 -27 36 5 9 22 13 43 12 23 -2 37 3 40 13 4 10
1 14 -11 13 -36 -3 -50 3 -55 22 -8 31 -42 24 -76 -17z m62 11 c3 -4 -1 -20
-9 -36 -15 -29 -16 -29 -35 -12 -18 16 -18 18 -3 36 17 18 36 23 47 12z"/>
<path d="M3973 3474 c-18 -35 -29 -65 -24 -68 4 -3 32 1 62 8 30 7 61 10 68 8
10 -3 10 0 0 17 -7 11 -16 16 -19 12 -6 -10 -82 -33 -88 -27 -4 5 38 68 53 78
6 5 4 12 -5 21 -13 12 -19 6 -47 -49z"/>
<path d="M308 3398 c-3 -7 11 -35 29 -62 18 -28 33 -55 33 -60 0 -6 5 -5 12 2
8 8 8 15 -1 26 -17 20 14 70 40 63 14 -4 29 10 29 26 0 1 -17 3 -38 4 -20 2
-51 5 -69 8 -19 3 -33 0 -35 -7z m72 -34 c0 -22 -22 -28 -37 -9 -19 27 -16 33
12 27 14 -2 25 -10 25 -18z"/>
<path d="M2032 3314 c16 -24 33 -44 38 -44 5 0 11 -8 14 -18 4 -11 18 -25 31
-32 14 -7 25 -19 25 -25 0 -22 185 -105 235 -105 3 0 -34 27 -84 60 -50 34
-93 66 -97 72 -4 6 20 -7 52 -29 32 -22 80 -52 107 -67 26 -15 45 -32 42 -36
-3 -5 0 -12 6 -16 8 -4 9 -3 5 4 -4 7 -2 12 4 12 14 0 -68 106 -114 148 -43
39 -85 66 -92 59 -4 -3 -16 3 -27 14 -11 10 -26 18 -31 17 -6 -1 -21 4 -34 11
-13 7 -43 14 -67 16 l-43 3 30 -44z"/>
<path d="M4130 3317 c0 -8 -22 -25 -48 -38 l-48 -24 25 -42 c25 -42 44 -53 56
-33 3 6 0 10 -8 10 -8 0 -22 11 -30 24 -15 22 -15 25 -1 37 14 11 18 10 30 -5
7 -11 11 -24 7 -29 -4 -6 0 -8 11 -4 10 4 20 7 22 7 2 0 4 5 4 12 0 6 -3 8 -7
5 -12 -12 -32 27 -21 40 6 7 14 13 18 13 12 0 33 -57 25 -69 -3 -7 0 -8 9 -5
22 8 20 20 -9 71 -27 45 -35 52 -35 30z"/>
<path d="M3486 3277 c-22 -22 -39 -89 -61 -237 -3 -19 -14 -95 -25 -169 -11
-73 -20 -139 -20 -145 0 -7 -6 -20 -13 -29 -11 -16 -17 -16 -57 -4 -110 33
-196 -6 -260 -117 -32 -58 -57 -121 -66 -170 -14 -83 -27 -120 -56 -168 -65
-107 -163 -188 -225 -188 -29 0 -36 5 -49 35 -7 19 -14 65 -14 103 l0 69 88
90 c143 146 187 260 123 324 -60 60 -176 30 -271 -70 -93 -98 -140 -218 -137
-347 2 -69 1 -76 -21 -90 -23 -15 -25 -14 -51 15 -24 28 -44 35 -98 32 -30 -1
-90 -63 -109 -112 -32 -77 -56 -33 -56 100 l1 96 53 45 c76 65 110 100 139
145 86 132 39 234 -96 212 -153 -25 -296 -228 -296 -421 0 -85 15 -136 58
-199 29 -42 97 -87 132 -87 22 0 23 -3 16 -57 -3 -32 -8 -60 -10 -63 -6 -10
-21 -210 -29 -405 -5 -99 -3 -97 -92 -142 -29 -14 -58 -24 -66 -21 -20 8 -108
236 -108 279 0 44 37 103 68 107 32 5 50 -38 34 -82 -16 -43 -15 -51 4 -35 23
19 44 64 44 94 0 67 -72 127 -142 119 -71 -9 -137 -94 -145 -189 -5 -55 -34
-129 -94 -246 -46 -88 -90 -143 -146 -181 -93 -65 -143 -30 -133 92 1 14 23
50 49 80 81 96 110 136 136 191 49 107 22 173 -72 172 -139 0 -283 -181 -286
-358 0 -33 3 -76 6 -96 7 -34 5 -38 -38 -74 -154 -126 -235 -130 -220 -10 9
65 45 195 90 319 19 54 35 104 35 111 0 12 -47 26 -123 38 -23 4 -30 0 -38
-22 -13 -34 -26 -41 -74 -41 -61 0 -70 10 -55 56 31 92 16 138 -43 138 -51 0
-85 -22 -96 -61 -16 -55 -1 -104 47 -155 l25 -27 -18 -48 c-33 -88 -100 -182
-167 -234 l-41 -33 7 60 c12 112 19 239 19 366 l0 127 31 11 c17 6 56 13 86
17 30 3 60 10 67 15 14 11 13 48 -2 49 -26 3 -152 -3 -167 -7 -17 -5 -23 5
-18 35 1 7 13 25 26 40 50 52 68 101 69 178 0 82 -17 110 -71 117 -100 13
-180 -114 -185 -292 -2 -74 -17 -102 -55 -102 -13 0 -26 -5 -29 -10 -8 -13 14
-42 26 -34 5 3 18 0 30 -7 21 -11 22 -14 16 -213 -4 -110 -8 -217 -11 -236 -2
-19 -7 -63 -11 -98 -8 -87 -17 -106 -70 -142 -83 -57 -126 -119 -139 -201 -10
-65 43 -129 107 -129 109 0 219 152 252 348 5 34 15 49 53 79 95 75 199 207
215 273 13 48 19 51 74 40 l51 -11 -35 -132 c-51 -196 -47 -273 19 -334 51
-47 117 -50 201 -7 55 27 143 90 177 126 l20 22 23 -22 c110 -104 286 -42 391
138 39 68 73 139 82 174 3 14 9 26 13 26 4 0 17 -42 30 -93 36 -142 34 -153
-25 -192 -64 -42 -87 -78 -88 -135 -1 -73 50 -119 136 -121 55 -2 87 11 128
53 51 50 74 111 74 195 l1 72 64 38 c36 21 67 39 70 40 3 2 7 -30 8 -70 2 -86
15 -125 45 -136 28 -10 70 3 85 28 7 11 13 68 14 137 2 115 12 184 27 184 4 0
34 25 67 55 33 30 64 55 69 55 15 0 -3 -66 -38 -137 -86 -177 -82 -301 11
-351 48 -26 122 -4 212 62 l46 34 22 -33 c27 -41 96 -75 153 -75 49 0 116 29
149 64 22 24 23 24 41 6 14 -14 31 -18 62 -16 24 1 49 5 55 9 9 6 18 44 28
127 31 249 29 242 99 318 17 19 43 40 59 48 49 26 47 5 -18 -236 -31 -113 -10
-251 43 -279 41 -22 86 -13 142 27 l54 39 25 -30 c53 -63 145 -80 227 -41 78
37 163 169 229 359 16 44 29 81 29 82 2 3 105 -22 109 -27 3 -3 -5 -47 -19
-99 -13 -51 -26 -103 -28 -115 -3 -11 -9 -34 -14 -51 -21 -70 11 -175 64 -210
62 -40 154 -28 222 31 52 44 85 107 116 222 13 48 27 94 31 103 4 10 0 19 -9
22 -20 8 -19 8 -50 -96 -34 -117 -64 -175 -106 -203 -46 -32 -85 -31 -106 1
-15 23 -15 34 -5 98 7 39 37 146 66 238 30 91 55 171 55 177 0 16 -32 27 -98
36 -49 6 -53 5 -62 -18 -5 -14 -18 -30 -30 -36 -22 -12 -88 -6 -103 9 -5 5 -1
31 9 59 30 83 -7 137 -79 118 -81 -20 -93 -132 -23 -205 24 -26 25 -28 12 -72
-25 -83 -86 -219 -126 -282 -89 -140 -186 -138 -194 4 l-4 54 61 59 c88 88
147 188 147 252 0 36 -40 75 -80 78 -113 9 -250 -125 -286 -281 -7 -29 -10
-84 -8 -121 l4 -69 -51 -28 c-75 -40 -79 -29 -43 120 8 33 17 71 20 85 4 14 8
70 10 125 3 86 1 105 -16 133 -11 17 -27 33 -35 33 -8 1 -21 2 -27 3 -21 3
-102 -40 -137 -73 -19 -18 -36 -29 -40 -26 -3 4 -6 36 -7 73 -1 89 -1 89 -24
95 -31 8 -57 -3 -69 -29 -11 -26 -55 -269 -67 -375 -11 -106 -58 -184 -137
-229 -35 -20 -40 -20 -61 -7 -29 19 -43 76 -36 142 6 46 12 56 81 125 112 114
151 213 105 266 -68 79 -233 -3 -310 -153 -40 -80 -58 -170 -46 -235 7 -37 5
-41 -34 -72 -76 -62 -135 -82 -138 -48 0 9 -2 24 -3 32 0 8 10 44 23 80 61
165 71 198 76 240 7 56 -11 107 -46 133 -41 31 -88 12 -166 -65 l-63 -62 6 94
c15 256 16 259 60 304 19 19 75 125 75 143 0 7 19 26 41 43 l42 30 27 -44 c41
-64 90 -90 175 -93 59 -1 77 2 118 25 49 26 116 89 162 151 14 19 25 28 26 20
2 -51 27 -113 60 -148 33 -35 79 -53 138 -53 63 -1 110 17 155 59 25 23 29 24
38 9 82 -147 314 -51 427 177 64 130 125 347 103 369 -15 15 -42 2 -42 -19 0
-45 -56 -236 -91 -309 -44 -92 -113 -176 -170 -204 -61 -32 -61 -31 -54 85 3
57 7 112 9 122 2 10 7 63 10 118 4 55 9 120 11 145 3 25 7 74 10 110 9 104 23
248 31 315 3 22 7 60 9 85 3 25 8 77 13 115 10 89 7 102 -28 120 -43 22 -87
19 -114 -8z m-1197 -639 c10 -27 -10 -97 -40 -141 -29 -42 -111 -127 -122
-127 -11 0 -2 120 14 173 13 49 80 117 114 117 17 0 28 -7 34 -22z m532 1 c15
-28 -3 -100 -38 -154 -31 -47 -112 -135 -125 -135 -5 0 -6 26 -3 58 14 141 36
196 91 233 38 25 61 24 75 -2z m537 -42 c11 -12 10 -33 -3 -142 -6 -46 -12
-103 -25 -234 -8 -81 -13 -99 -38 -130 -36 -45 -76 -57 -103 -30 -10 10 -19
26 -20 34 -3 39 -2 55 4 130 20 220 60 334 129 368 40 20 43 20 56 4z m-2857
-444 c16 -43 -19 -172 -55 -202 -23 -20 -29 4 -25 105 4 76 7 88 28 105 31 25
40 24 52 -8z m1843 11 c32 -12 17 -41 -34 -68 -56 -29 -62 -23 -36 39 15 35
34 43 70 29z m-26 -146 c-7 -13 -23 -35 -34 -50 l-22 -27 -4 31 c-4 25 0 33
26 49 41 25 49 24 34 -3z m1702 -314 c-12 -35 -14 -37 -22 -19 -12 27 8 83 23
68 8 -8 8 -22 -1 -49z m-3341 -53 c-6 -17 -15 -28 -20 -25 -12 7 -11 41 2 66
17 33 32 -1 18 -41z m779 -28 c2 -30 -4 -56 -23 -94 -28 -53 -112 -152 -124
-144 -12 7 15 179 33 213 20 40 64 74 90 70 17 -2 22 -11 24 -45z m2340 31
c13 -22 -3 -89 -33 -139 -23 -40 -98 -125 -109 -125 -6 0 -2 46 9 129 7 55 24
97 48 118 38 35 71 41 85 17z m-883 -14 c16 -49 -29 -141 -104 -215 l-41 -39
0 44 c0 80 25 159 61 196 37 38 74 45 84 14z m-1181 -504 c-5 -58 -30 -96 -63
-96 -32 0 -45 25 -29 56 13 24 80 84 89 78 4 -2 5 -19 3 -38z m-1549 -163
c-28 -109 -44 -143 -69 -143 -36 0 -48 39 -30 94 14 42 99 134 111 122 3 -3
-3 -35 -12 -73z"/>
<path d="M207 3216 c-3 -8 10 -32 29 -54 19 -22 34 -42 34 -44 0 -3 -26 -4
-57 -4 -47 1 -58 -2 -61 -17 -2 -10 0 -16 5 -15 13 4 93 -34 93 -44 0 -5 5 -6
10 -3 12 7 14 36 3 33 -10 -3 -73 20 -73 26 0 3 24 4 53 3 62 -2 66 8 19 58
-19 19 -31 35 -28 35 15 0 76 -35 76 -44 0 -6 5 -4 10 4 13 19 13 30 0 30 -17
0 -90 34 -90 42 0 14 -18 9 -23 -6z"/>
<path d="M4201 3097 c-6 -8 -10 -31 -8 -52 3 -46 -17 -57 -31 -17 -7 21 -7 33
1 41 8 8 5 11 -10 11 -19 0 -20 -4 -13 -36 12 -51 31 -69 60 -54 16 8 21 20
20 43 -3 47 -1 57 10 57 16 0 29 -43 18 -57 -8 -10 -5 -13 9 -13 17 0 19 5 15
28 -9 51 -47 77 -71 49z"/>
<path d="M2177 3089 c-10 -6 -21 -8 -24 -5 -4 3 -11 2 -17 -2 -6 -5 -33 -17
-60 -27 -43 -15 -46 -19 -30 -28 11 -6 50 -16 88 -23 61 -10 78 -9 136 7 93
25 120 37 120 50 0 8 -4 8 -12 2 -7 -6 -35 -13 -63 -16 -32 -4 -43 -3 -30 3
11 5 35 9 53 9 46 1 40 18 -10 25 -90 13 -134 15 -151 5z"/>
<path d="M2560 3060 l-75 -5 60 -22 c33 -11 78 -27 100 -33 22 -7 44 -16 49
-21 13 -11 -132 30 -166 47 -39 20 -35 3 5 -20 121 -70 209 -105 215 -86 2 6
18 4 38 -5 19 -8 34 -10 34 -6 0 5 19 9 43 9 98 1 118 10 75 33 -13 7 -25 15
-28 19 -8 11 -103 60 -117 60 -7 0 -13 4 -13 9 0 9 -48 19 -115 24 -16 1 -64
0 -105 -3z"/>
<path d="M2514 2965 c45 -67 33 -60 -26 16 l-28 34 26 -60 c43 -100 63 -128
122 -171 84 -60 83 -60 75 -22 -3 18 -11 40 -18 48 -7 8 -11 20 -8 26 2 6 -3
17 -12 24 -8 7 -15 18 -15 24 0 14 -68 81 -124 122 l-40 29 48 -70z"/>
<path d="M3557 936 c-179 -178 -324 -276 -607 -412 -96 -46 -361 -116 -490
-129 -36 -4 -74 -9 -85 -11 -25 -5 -234 -5 -300 0 -220 16 -478 88 -685 190
-78 39 -231 129 -262 155 -7 6 -40 32 -73 58 -33 26 -75 61 -93 78 -33 29 -68
40 -77 25 -9 -15 157 -152 285 -236 166 -109 325 -182 516 -238 90 -26 110
-31 169 -41 17 -3 55 -10 85 -16 74 -14 395 -19 495 -8 291 33 587 139 830
297 136 89 232 169 368 310 45 45 47 50 27 55 -16 4 -38 -12 -103 -77z"/>
<path d="M2998 313 c-28 -8 -48 -20 -48 -29 0 -15 16 -20 22 -6 2 5 16 12 32
16 27 7 28 6 21 -21 -14 -55 -14 -82 1 -93 8 -7 14 -11 14 -9 3 47 7 159 6
158 -1 -1 -22 -8 -48 -16z"/>
<path d="M1385 264 c-10 -30 -23 -54 -29 -54 -18 0 7 -16 53 -34 36 -14 46
-15 52 -4 13 20 11 32 -3 21 -20 -15 -63 0 -63 22 0 24 19 30 38 11 8 -8 17
-12 21 -9 9 9 8 33 -1 32 -37 -6 -60 20 -33 36 10 6 51 -12 61 -27 3 -5 9 -3
12 5 4 11 -8 21 -42 35 l-48 20 -18 -54z"/>
<path d="M2822 248 c-15 -15 -15 -29 0 -25 14 3 41 -71 34 -95 -2 -10 -1 -18
3 -18 12 0 47 29 35 30 -6 0 -19 27 -29 60 -19 63 -23 68 -43 48z"/>
<path d="M1580 225 c-11 -13 -7 -21 24 -49 40 -39 46 -56 17 -56 -21 0 -51 25
-52 43 0 7 -4 3 -8 -8 -9 -22 7 -38 48 -48 53 -13 70 41 21 69 -36 22 -47 44
-21 44 30 0 51 -11 51 -27 0 -8 5 -11 10 -8 18 11 11 32 -15 43 -35 16 -60 15
-75 -3z"/>
<path d="M2627 203 c-41 -21 -46 -67 -14 -116 22 -34 60 -35 93 -2 19 19 23
31 19 57 -11 60 -52 86 -98 61z m55 -20 c37 -43 28 -103 -16 -103 -46 0 -71
65 -37 99 26 26 34 26 53 4z"/>
<path d="M1775 192 c-3 -3 -5 -12 -5 -20 0 -12 3 -12 15 -2 24 20 36 2 29 -43
-4 -23 -11 -47 -16 -53 -6 -8 0 -13 16 -16 14 -3 23 -1 20 4 -9 14 7 108 18
108 6 0 16 -7 23 -17 13 -17 28 -5 17 14 -8 12 -108 34 -117 25z"/>
<path d="M2396 166 c-10 -8 -15 -19 -11 -25 9 -15 26 -14 23 2 -2 7 9 13 25
15 44 5 47 -25 6 -62 -67 -60 -67 -64 -2 -61 47 1 59 5 61 20 3 11 0 15 -8 10
-14 -9 -70 -13 -70 -6 0 3 13 14 30 23 30 17 50 62 33 79 -17 17 -67 20 -87 5z"/>
<path d="M1986 109 c1 -30 -3 -60 -8 -66 -17 -20 96 -17 116 3 20 20 21 78 1
94 -9 7 -37 15 -63 18 l-47 4 1 -53z m88 25 c9 -4 16 -18 16 -33 0 -44 -14
-55 -65 -52 -18 1 -20 7 -17 46 4 39 7 45 27 45 13 0 30 -3 39 -6z"/>
</g>
</svg>
